<?xml version="1.0" encoding="UTF-8"?>
<!DOCTYPE svg PUBLIC "-//W3C//DTD SVG 1.1//EN" "http://www.w3.org/Graphics/SVG/1.1/DTD/svg11.dtd">
<!-- Creator: CorelDRAW X7 -->
<svg xmlns="http://www.w3.org/2000/svg" xml:space="preserve" width="11.811in" height="3.93701in" version="1.1" style="shape-rendering:geometricPrecision; text-rendering:geometricPrecision; image-rendering:optimizeQuality; fill-rule:evenodd; clip-rule:evenodd"
viewBox="0 0 11811 3937"
 xmlns:xlink="http://www.w3.org/1999/xlink">
 <defs>
  <style type="text/css">
   <![CDATA[
    .str1 {stroke:#00B7E6;stroke-width:27.7756}
    .str0 {stroke:#332C2B;stroke-width:13.8858}
    .fil0 {fill:#332C2B}
    .fil1 {fill:#00B6E6}
   ]]>
  </style>
   <clipPath id="id0">
    <rect x="158" y="585" width="3151" height="3151"/>
   </clipPath>
 </defs>
 <g id="Layer_x0020_1">
  <metadata id="CorelCorpID_0Corel-Layer"/>
  <path class="fil0 str0" d="M3472 1919c-7,0 -13,-2 -20,-7 -6,-5 -9,-12 -9,-22l0 -8 2 -919c0,-7 3,-13 9,-20 7,-6 13,-9 20,-9l252 0c34,0 65,6 94,17 29,11 55,26 77,45 22,20 40,42 52,68 13,26 19,53 19,82 0,32 -9,64 -27,94 -18,31 -40,56 -67,75 63,20 114,56 154,111 41,54 61,116 61,187 0,42 -8,81 -24,118 -16,37 -38,69 -65,98 -27,28 -59,50 -96,66 -36,16 -76,24 -117,24l-315 0zm315 -58c33,0 65,-7 94,-20 30,-13 56,-31 79,-53 22,-22 39,-48 52,-79 12,-31 18,-63 18,-96 0,-35 -6,-67 -18,-98 -13,-30 -30,-57 -52,-80 -23,-23 -49,-41 -79,-54 -29,-13 -61,-20 -94,-20l-286 0 0 500 286 0zm-61 -558c52,0 95,-15 129,-45 35,-30 52,-67 52,-112 0,-43 -17,-79 -52,-108 -34,-29 -77,-44 -129,-44l-225 0 0 309 225 0zm888 616c-74,0 -133,-12 -176,-38 -44,-26 -77,-58 -100,-97 -23,-39 -38,-82 -45,-129 -7,-47 -11,-93 -11,-136l0 -429c0,-8 4,-15 10,-22 6,-6 13,-9 22,-9 7,0 13,3 20,9 6,7 9,14 9,22l0 429c0,42 3,83 8,124 6,41 18,78 37,110 18,32 46,57 82,77 36,19 84,29 144,29 93,0 161,-27 204,-80 43,-54 64,-139 64,-258l0 -431c0,-8 4,-15 10,-22 6,-6 13,-9 22,-9 7,0 13,3 20,9 6,7 9,14 9,22l0 431c0,44 -4,89 -11,136 -6,47 -21,90 -44,129 -23,39 -56,71 -99,96 -43,25 -102,37 -175,37zm714 5c-5,0 -15,0 -30,0 -14,0 -30,-1 -47,-1 -16,-1 -33,-2 -49,-3 -16,0 -27,-1 -34,-3 -6,-1 -10,-5 -14,-10 -3,-6 -6,-12 -7,-19l-6 -792c0,-6 3,-13 9,-19 6,-7 13,-10 20,-10l37 0c20,-1 43,-2 69,-3 27,-1 44,-1 52,-1 159,0 281,37 367,112 86,74 129,180 129,317 0,141 -42,248 -127,321 -85,74 -208,111 -369,111zm-133 -63c3,0 5,0 6,1 2,1 4,1 6,1l0 11 -12 -13zm81 -737c-12,1 -25,2 -39,2 -14,0 -26,0 -36,0l6 737 121 0c41,0 86,-4 137,-12 50,-9 98,-26 142,-52 45,-27 82,-64 112,-113 30,-49 45,-113 45,-194 0,-80 -15,-145 -45,-193 -30,-49 -67,-87 -112,-113 -44,-26 -92,-44 -142,-52 -51,-8 -96,-13 -137,-13 -4,0 -11,1 -21,2 -9,0 -20,1 -31,1zm1177 795c-58,0 -113,-11 -165,-34 -52,-23 -98,-54 -137,-93 -39,-39 -70,-84 -92,-137 -23,-53 -35,-109 -35,-167 0,-58 12,-113 35,-165 22,-53 53,-98 92,-137 39,-39 85,-70 137,-93 52,-23 107,-34 165,-34 116,0 216,40 300,121 29,28 54,60 75,97 21,36 36,75 46,115 0,7 -2,15 -7,22 -5,8 -11,13 -18,16 -7,0 -13,-3 -20,-7 -6,-5 -10,-11 -13,-18 -9,-35 -22,-68 -41,-100 -19,-32 -40,-60 -63,-84 -36,-33 -76,-59 -120,-77 -44,-18 -90,-27 -139,-27 -51,0 -99,10 -144,29 -46,20 -85,46 -118,80 -34,33 -60,72 -79,117 -20,45 -30,94 -30,145 0,52 10,100 30,145 19,45 45,84 79,118 33,33 72,59 118,79 45,19 93,29 144,29 100,0 186,-33 257,-100 25,-25 46,-54 65,-85 19,-32 32,-66 41,-100l0 -9c3,-8 4,-19 4,-33l-421 0c-8,0 -15,-3 -22,-8 -6,-6 -9,-13 -9,-21 0,-10 3,-17 9,-22 7,-5 14,-7 22,-7l448 0c8,0 16,2 22,7 6,5 9,12 9,22 2,14 2,29 0,45 -1,15 -2,28 -4,36 -21,85 -62,156 -123,215 -40,38 -86,68 -137,89 -52,21 -105,31 -161,31zm1157 -58c8,0 15,3 21,9 7,7 10,13 10,20 0,9 -3,16 -10,22 -6,6 -13,9 -21,9l-494 -2c-9,0 -16,-3 -22,-9 -6,-6 -9,-13 -9,-20l-3 -439 0 -23 3 -336c0,-8 3,-15 9,-22 6,-6 13,-9 22,-9l494 0c8,0 15,3 21,9 7,7 10,14 10,22 0,7 -3,13 -10,19 -6,6 -13,8 -21,8l-467 2 0 303 339 0c9,0 16,3 22,9 7,6 10,13 10,20 0,7 -3,13 -10,20 -6,6 -13,9 -22,9l-339 0 0 379 467 0zm831 -802c7,0 13,3 20,9 6,7 9,14 9,22 0,7 -3,14 -9,20 -7,6 -14,9 -22,9l-257 -2c0,128 1,257 2,386 0,129 1,257 1,385 0,8 -4,16 -10,22 -6,6 -13,9 -20,9 -7,0 -13,-3 -19,-9 -7,-6 -10,-14 -10,-22l-2 -771c-43,0 -86,1 -128,1 -42,1 -85,1 -128,1 -8,0 -16,-3 -22,-9 -6,-6 -9,-13 -9,-20 0,-8 3,-15 9,-22 6,-6 14,-9 22,-9l573 0zm831 0c7,0 14,3 20,9 6,7 9,14 9,22 0,7 -3,14 -9,20 -6,6 -14,9 -22,9l-256 -2c0,128 0,257 1,386 0,129 1,257 1,385 0,8 -3,16 -10,22 -6,6 -12,9 -19,9 -7,0 -14,-3 -20,-9 -6,-6 -10,-14 -10,-22l-2 -771c-43,0 -85,1 -128,1 -42,1 -85,1 -128,1 -8,0 -15,-3 -22,-9 -6,-6 -9,-13 -9,-20 0,-8 3,-15 9,-22 7,-6 14,-9 22,-9l573 0zm308 802c7,1 12,5 17,9 4,5 6,11 6,18 0,8 -3,16 -9,22 -6,6 -13,9 -21,9l-47 0c-7,0 -13,-3 -20,-9 -6,-6 -9,-14 -9,-22 0,-7 2,-12 7,-17 5,-4 11,-7 18,-10l-6 -746c-13,-4 -19,-12 -19,-25 0,-8 3,-15 9,-22 7,-6 13,-9 20,-9l47 0c8,0 15,3 21,9 6,7 9,14 9,22 0,4 -2,9 -6,15 -5,5 -10,10 -17,12l0 744zm815 -785c8,0 16,2 22,8 6,6 9,12 9,19l-6 785c-1,7 -5,14 -9,20 -5,6 -13,9 -24,9 -6,0 -13,-4 -21,-12l-506 -715c0,118 -1,236 -3,352 -1,117 -2,233 -2,348 -5,20 -16,29 -31,29 -8,0 -15,-3 -22,-9 -6,-6 -9,-14 -9,-22l6 -792c3,-12 13,-23 31,-33 3,-1 7,0 11,4 4,4 8,9 12,15 88,122 173,241 254,357 82,116 167,235 255,357 0,-116 0,-232 2,-346 1,-115 2,-231 2,-349 1,-6 4,-11 9,-17 5,-6 12,-8 20,-8zm660 843c-58,0 -113,-11 -165,-34 -52,-23 -98,-54 -137,-93 -39,-39 -69,-84 -92,-137 -23,-53 -35,-109 -35,-167 0,-58 12,-113 35,-165 23,-53 53,-98 92,-137 39,-39 85,-70 137,-93 52,-23 107,-34 165,-34 116,0 216,40 300,121 30,28 55,60 75,97 21,36 37,75 46,115 0,7 -2,15 -7,22 -5,8 -11,13 -18,16 -7,0 -13,-3 -20,-7 -6,-5 -10,-11 -13,-18 -8,-35 -22,-68 -41,-100 -18,-32 -40,-60 -63,-84 -36,-33 -76,-59 -120,-77 -44,-18 -90,-27 -139,-27 -51,0 -99,10 -144,29 -46,20 -85,46 -118,80 -33,33 -60,72 -79,117 -20,45 -29,94 -29,145 0,52 9,100 29,145 19,45 46,84 79,118 33,33 72,59 118,79 45,19 93,29 144,29 100,0 186,-33 257,-100 25,-25 47,-54 65,-85 19,-32 33,-66 41,-100l0 -9c3,-8 4,-19 4,-33l-421 0c-8,0 -15,-3 -22,-8 -6,-6 -9,-13 -9,-21 0,-10 3,-17 9,-22 7,-5 14,-7 22,-7l448 0c8,0 16,2 22,7 6,5 9,12 9,22 2,14 2,29 0,45 -1,15 -2,28 -4,36 -21,85 -62,156 -123,215 -40,38 -86,68 -137,89 -52,21 -105,31 -161,31z"/>
  <g style="clip-path:url(#id0)">
   <image x="158" y="585" width="3151" height="3151" xlink:href="ebudgettingwatch_logo_Images\ebudgettingwatch_logo_ImgID1.png"/>
  </g>
  <path class="fil1 str1" d="M4726 3161l-4 8c-3,3 -6,4 -9,4 0,0 -1,2 -4,4 -1,0 -3,1 -6,2l-13 -2c-9,-5 -15,-11 -16,-16l-384 -867c-65,146 -129,291 -193,434 -64,144 -128,288 -192,433 -6,7 -10,11 -13,14 -5,3 -10,4 -14,4 -4,0 -9,-2 -15,-6l-10 -12 -425 -919c-3,-7 -4,-15 -2,-23 1,-8 7,-15 16,-19l-2 2c7,-2 15,-3 22,-1 8,2 13,7 16,14l400 866 387 -866 -2 0c6,-13 15,-19 27,-19 13,0 21,4 25,13l286 647 100 228 398 -867c3,-7 8,-12 16,-15 9,-2 16,-2 23,0 7,3 12,9 14,17 2,8 2,16 -1,23l-425 919zm-115 -23l0 -2c3,7 3,14 1,23 -2,8 -6,13 -11,16 -7,3 -15,3 -23,1 -8,-2 -14,-6 -17,-13l-203 -456 -68 -153 -273 607 3 0c-6,12 -15,18 -28,18 -2,0 -6,-1 -12,-4 -7,-3 -12,-7 -16,-14 -3,-7 -3,-15 1,-23l298 -665 -2 0c6,-12 16,-19 29,-19 13,0 22,7 27,19l-2 0 296 665zm1523 -2c7,19 1,33 -19,41 -1,0 -3,1 -5,1 -2,1 -4,1 -5,1 -14,0 -23,-7 -27,-23l2 3 -146 -332 -367 0c-23,56 -48,112 -73,170 -26,58 -51,114 -74,168 -5,8 -13,12 -25,12 -5,0 -9,-1 -13,-4 -7,-3 -11,-8 -13,-15 -3,-8 -2,-15 1,-22l187 -417 -2 0c19,-44 42,-96 69,-154 26,-59 61,-134 104,-227l-2 0c5,-13 14,-19 27,-19 12,0 21,6 27,19l-2 0c24,53 45,100 63,141 19,42 36,80 50,113 15,33 28,63 40,91 12,27 23,53 34,78 12,26 23,52 34,78 11,25 23,53 36,82 13,29 28,61 43,96 15,35 33,74 54,119l2 0zm-227 -367l-156 -348 -156 348 312 0zm929 -450c7,0 14,3 20,9 6,7 9,14 9,22 0,7 -3,14 -9,20 -6,6 -14,9 -22,9l-256 -2c0,128 0,257 1,386 1,129 1,257 1,385 0,8 -3,16 -9,22 -7,6 -13,9 -20,9 -7,0 -14,-3 -20,-9 -6,-6 -9,-14 -9,-22l-2 -771c-43,0 -86,1 -129,1 -42,1 -85,1 -128,1 -8,0 -15,-3 -22,-9 -6,-6 -9,-13 -9,-20 0,-8 3,-15 9,-22 7,-6 14,-9 22,-9l573 0zm661 860c-60,0 -116,-11 -168,-34 -52,-23 -98,-54 -137,-93 -38,-39 -69,-84 -92,-137 -23,-53 -35,-109 -35,-167 0,-58 12,-113 35,-165 23,-53 54,-98 92,-137 39,-39 85,-70 137,-93 52,-23 108,-34 168,-34 55,0 109,10 160,30 51,20 97,51 138,91 55,53 93,114 114,185 3,11 2,21 -3,29 -5,9 -11,14 -18,15 -7,3 -14,2 -21,-2 -6,-4 -11,-11 -14,-21l0 2c-10,-32 -23,-62 -40,-89 -16,-28 -36,-54 -60,-78 -35,-33 -74,-59 -118,-77 -44,-18 -90,-27 -138,-27 -52,0 -100,10 -145,29 -45,20 -85,46 -118,80 -33,33 -60,72 -79,117 -19,45 -29,94 -29,145 0,52 10,100 29,145 19,45 46,84 79,118 33,33 73,59 118,79 45,19 93,29 145,29 98,0 183,-33 254,-100 23,-24 44,-49 60,-77 17,-28 31,-58 42,-90 3,-7 7,-12 13,-15 7,-4 13,-6 20,-6 7,3 13,9 18,17 5,8 6,16 3,23l2 -2c-11,36 -26,70 -46,102 -19,32 -43,61 -71,88 -40,38 -85,68 -136,89 -51,21 -104,31 -159,31zm1248 -860c8,0 15,3 21,9 7,7 10,14 10,22l0 798c0,8 -3,16 -10,22 -6,6 -13,9 -21,9 -9,0 -16,-3 -22,-9 -7,-6 -10,-14 -10,-22l0 -421 -537 0 0 421c0,8 -3,16 -10,22 -6,6 -13,9 -21,9 -7,0 -14,-3 -20,-9 -6,-6 -10,-14 -10,-22l0 -798c0,-8 4,-15 10,-22 6,-6 13,-9 20,-9 8,0 15,3 21,9 7,7 10,14 10,22l0 319 537 0 0 -319c0,-8 3,-15 10,-22 6,-6 13,-9 22,-9z"/>
 </g>
</svg>
